<?xml version="1.0" encoding="UTF-8"?>
<svg version="1.1" xmlns="http://www.w3.org/2000/svg" width="500" height="500">
<path d="M0 0 C0.90045044 -0.00705963 1.80090088 -0.01411926 2.7286377 -0.02139282 C40.56271231 -0.2507174 40.56271231 -0.2507174 57.20703125 3.203125 C58.69759033 3.50911621 58.69759033 3.50911621 60.21826172 3.82128906 C82.21378087 8.47295034 102.99514255 15.36588877 123.20703125 25.203125 C123.94405273 25.56132324 124.68107422 25.91952148 125.44042969 26.28857422 C144.89901796 35.8774365 162.98020988 48.4248097 178.93359375 63.11328125 C181.05333337 65.06183915 183.21186594 66.95069833 185.39453125 68.828125 C191.89170121 74.51964589 197.4893498 80.59900765 202.8984375 87.33984375 C204.36112473 89.1539719 205.84574865 90.95080689 207.359375 92.72265625 C240.62231866 131.88029879 262.13973065 186.51250595 262.41015625 237.99609375 C262.41721588 238.89654419 262.42427551 239.79699463 262.43154907 240.72473145 C262.66087365 278.55880606 262.66087365 278.55880606 259.20703125 295.203125 C258.90104004 296.69368408 258.90104004 296.69368408 258.58886719 298.21435547 C253.93720591 320.20987462 247.04426748 340.9912363 237.20703125 361.203125 C236.84883301 361.94014648 236.49063477 362.67716797 236.12158203 363.43652344 C226.53271975 382.89511171 213.98534655 400.97630363 199.296875 416.9296875 C197.3483171 419.04942712 195.45945792 421.20795969 193.58203125 423.390625 C187.89051036 429.88779496 181.8111486 435.48544355 175.0703125 440.89453125 C173.25618435 442.35721848 171.45934936 443.8418424 169.6875 445.35546875 C130.52985746 478.61841241 75.8976503 500.1358244 24.4140625 500.40625 C23.06338684 500.41683945 23.06338684 500.41683945 21.6854248 500.42764282 C-16.14864981 500.6569674 -16.14864981 500.6569674 -32.79296875 497.203125 C-34.28352783 496.89713379 -34.28352783 496.89713379 -35.80419922 496.58496094 C-57.79971837 491.93329966 -78.58108005 485.04036123 -98.79296875 475.203125 C-99.52999023 474.84492676 -100.26701172 474.48672852 -101.02636719 474.11767578 C-120.48495546 464.5288135 -138.56614738 451.9814403 -154.51953125 437.29296875 C-156.63927087 435.34441085 -158.79780344 433.45555167 -160.98046875 431.578125 C-167.47763871 425.88660411 -173.0752873 419.80724235 -178.484375 413.06640625 C-179.94706223 411.2522781 -181.43168615 409.45544311 -182.9453125 407.68359375 C-216.20825616 368.52595121 -237.72566815 313.89374405 -237.99609375 262.41015625 C-238.00315338 261.50970581 -238.01021301 260.60925537 -238.01748657 259.68151855 C-238.24681115 221.84744394 -238.24681115 221.84744394 -234.79296875 205.203125 C-234.48697754 203.71256592 -234.48697754 203.71256592 -234.17480469 202.19189453 C-229.52314341 180.19637538 -222.63020498 159.4150137 -212.79296875 139.203125 C-212.43477051 138.46610352 -212.07657227 137.72908203 -211.70751953 136.96972656 C-202.11865725 117.51113829 -189.57128405 99.42994637 -174.8828125 83.4765625 C-172.9342546 81.35682288 -171.04539542 79.19829031 -169.16796875 77.015625 C-163.47644786 70.51845504 -157.3970861 64.92080645 -150.65625 59.51171875 C-148.84212185 58.04903152 -147.04528686 56.5644076 -145.2734375 55.05078125 C-106.11579496 21.78783759 -51.4835878 0.2704256 0 0 Z " fill="#454334" transform="translate(237.79296875,-0.203125)"/>
<path d="M0 0 C5.44736842 2.44736842 5.44736842 2.44736842 7 4 C7.27954835 9.40460151 6.85310009 14.44290057 6.08203125 19.796875 C5.31780299 25.28512129 4.69915586 30.76879344 4.21875 36.2890625 C4.12845268 37.31799118 4.12845268 37.31799118 4.03633118 38.3677063 C3.79287022 41.16965376 3.55384353 43.97190614 3.32275391 46.77490234 C3.14905243 48.86360312 2.96579906 50.95129616 2.78125 53.0390625 C2.6275293 54.86751709 2.6275293 54.86751709 2.47070312 56.73291016 C1.99237585 60.05291825 1.46265173 63.53734827 -1 66 C-2.66617115 66.04063832 -4.33388095 66.042721 -6 66 C-6.15557373 65.31188232 -6.31114746 64.62376465 -6.47143555 63.91479492 C-9.09591946 52.3391354 -11.72232954 40.75962849 -14.625 29.25 C-14.80635498 28.49614014 -14.98770996 27.74228027 -15.17456055 26.96557617 C-16.53193712 21.70956915 -18.34996661 16.98195774 -22.859375 13.609375 C-23.79523438 13.18398437 -23.79523438 13.18398437 -24.75 12.75 C-25.36359375 12.45609375 -25.9771875 12.1621875 -26.609375 11.859375 C-44.23212911 5.52439803 -63.57869369 8.03609594 -80.25 15.75 C-96.90608896 24.57706179 -109.36296301 39.99115025 -115 58 C-118.27648615 68.97811164 -118.91285799 82.47813006 -114 93 C-113.67128906 93.79535156 -113.34257812 94.59070313 -113.00390625 95.41015625 C-104.82605307 113.71836043 -86.56315893 124.24953993 -70 134 C-55.77524812 142.43847747 -41.93013325 151.47734758 -30 163 C-29.08927734 163.78310547 -29.08927734 163.78310547 -28.16015625 164.58203125 C-17.50492633 174.12583129 -10.79458783 188.84188958 -10 203 C-8.68260779 228.06258351 -16.88286007 249.23477239 -33.24853516 268.01953125 C-39.48389061 274.94635214 -46.30922573 280.75388765 -54 286 C-54.56525391 286.38639648 -55.13050781 286.77279297 -55.71289062 287.17089844 C-68.74832419 295.89776277 -83.28396177 301.55813494 -98.3125 305.875 C-98.96774658 306.06610352 -99.62299316 306.25720703 -100.2980957 306.45410156 C-113.49366058 309.99951482 -126.85373133 310.32325011 -140.41674805 310.26074219 C-143.19406755 310.24997454 -145.97074625 310.26072562 -148.74804688 310.2734375 C-161.54851589 310.28443704 -173.40603458 310.03120423 -185 304 C-185.13350893 296.00429875 -184.92877805 288.04902957 -184.5625 280.0625 C-184.52326416 279.16313721 -184.48402832 278.26377441 -184.44360352 277.3371582 C-184.27352417 273.84122781 -184.07852932 270.45630297 -183.484375 267.00390625 C-183.05423696 264.3363566 -182.89401974 261.87410893 -182.82421875 259.1796875 C-182.80037109 258.31472656 -182.77652344 257.44976562 -182.75195312 256.55859375 C-182.70880266 254.76196514 -182.67765163 252.96501023 -182.65820312 251.16796875 C-182.45024951 244.69722611 -182.45024951 244.69722611 -180.26953125 241.3203125 C-177.37278225 239.63511256 -176.1590101 240.21965026 -173 241 C-172.77860352 241.87100342 -172.55720703 242.74200684 -172.32910156 243.6394043 C-171.48921769 246.93710649 -170.64641332 250.23403568 -169.80175781 253.53051758 C-169.43994703 254.9449416 -169.07923129 256.35964629 -168.71972656 257.7746582 C-165.26688973 277.30742328 -165.26688973 277.30742328 -154.83984375 292.390625 C-139.2060882 300.79950743 -118.43854718 300.27213678 -101.73046875 295.3203125 C-80.64495743 287.85758703 -63.74543048 277.3658052 -53 257 C-48.70619608 247.1476331 -46.75555819 239.25046809 -46.625 228.5625 C-46.56892578 226.87350586 -46.56892578 226.87350586 -46.51171875 225.15039062 C-46.36583085 211.05599899 -52.61102322 199.83867023 -61.9375 189.5625 C-73.21259692 178.8206847 -87.954922 170.93199874 -101.8125 164.125 C-114.21582363 158.01446283 -125.64442276 151.25647783 -136 142 C-136.64324219 141.43925781 -137.28648437 140.87851563 -137.94921875 140.30078125 C-148.07816115 130.90021223 -155.37165723 117.57810464 -156.12939453 103.61572266 C-156.13052246 102.8066748 -156.13165039 101.99762695 -156.1328125 101.1640625 C-156.13410156 100.26429688 -156.13539063 99.36453125 -156.13671875 98.4375 C-156.13285156 97.509375 -156.12898438 96.58125 -156.125 95.625 C-156.13080078 94.24441406 -156.13080078 94.24441406 -156.13671875 92.8359375 C-156.11893412 80.38669874 -153.16061089 70.55735429 -147.375 59.625 C-146.93841064 58.79718018 -146.50182129 57.96936035 -146.05200195 57.11645508 C-142.3844163 50.35117932 -138.1784261 44.70662557 -133 39 C-132.14054718 37.92085559 -131.28545176 36.83820476 -130.4375 35.75 C-112.52039901 15.53583478 -83.17665259 -0.12818381 -56.1875 -2.6875 C-55.41792969 -2.73261719 -54.64835938 -2.77773437 -53.85546875 -2.82421875 C-36.00730521 -4.5150974 -17.67375005 -5.48704761 0 0 Z " fill="#FCFCFC" transform="translate(343,85)"/>
</svg>
